# xmcd
#
# Track frame offsets:
#	150
#	18761
#	46278
#	66497
#	98519
#	114978
#	142661
#
# Disc length: 2098 seconds
# Revision: 0
# Processed by: cddbd v1.5.2PL0 Copyright (c) Steve Scherf et al.
# Submitted via: dBpowerAMP V12.0
#
DISCID=4d083007
DTITLE=Skip Murphy and His Merry Pranksters - Live At SubCat
DYEAR=1900
DGENRE=Blues
TTITLE0=That's Alright With Me
TTITLE1=Fishin
TTITLE2=Cry To Me
TTITLE3=I'd Rather Go Blind
TTITLE4=She Just Wants To Dance
TTITLE5=Broke My Baby's Heart
TTITLE6=Don't Let Go
EXTD=
EXTT0=
EXTT1=
EXTT2=
EXTT3=
EXTT4=
EXTT5=
EXTT6=
PLAYORDER=
